<svg width="40" height="40" viewBox="0 0 40 40" fill="none" xmlns="http://www.w3.org/2000/svg">
<g clip-path="url(#clip0_728_56)">
<path d="M31.7341 7.36071L24.6126 1.34863L17.4824 7.36071" stroke="#141414" stroke-width="1.45455" stroke-miterlimit="10" stroke-linecap="round" stroke-linejoin="round"/>
<path d="M17.4824 14.3273H31.7363M24.6126 1.34863L19.3688 5.77009V14.3206H29.8498V5.76994L24.6126 1.34863Z" stroke="#141414" stroke-width="1.45455" stroke-miterlimit="10" stroke-linecap="round" stroke-linejoin="round"/>
<path d="M38.6302 18.5493L35.5468 28.2164C35.135 29.5081 33.6929 30.5455 32.3371 30.5455H16.0993C14.7435 30.5455 13.2972 29.5289 12.8852 28.2372L8.4853 14.4728H1.38086M38.6172 18.5455H9.81722M11.7081 24.5819H36.7263M22.4378 9.19141H26.7808V14.3273H22.4378V9.19141Z" stroke="#141414" stroke-width="1.45455" stroke-miterlimit="10" stroke-linecap="round" stroke-linejoin="round"/>
<path d="M15.3046 38.6194C16.9053 38.6194 18.2029 37.3218 18.2029 35.7211C18.2029 34.1204 16.9053 32.8228 15.3046 32.8228C13.7039 32.8228 12.4062 34.1204 12.4062 35.7211C12.4062 37.3218 13.7039 38.6194 15.3046 38.6194Z" stroke="#141414" stroke-width="1.45455" stroke-miterlimit="10" stroke-linejoin="round"/>
<path d="M32.6522 38.6194C34.2529 38.6194 35.5506 37.3218 35.5506 35.7211C35.5506 34.1204 34.2529 32.8228 32.6522 32.8228C31.0515 32.8228 29.7539 34.1204 29.7539 35.7211C29.7539 37.3218 31.0515 38.6194 32.6522 38.6194Z" stroke="#141414" stroke-width="1.45455" stroke-miterlimit="10" stroke-linejoin="round"/>
</g>
<defs>
<clipPath id="clip0_728_56">
<rect width="40" height="40" fill="white"/>
</clipPath>
</defs>
</svg>
