<svg width="486" height="211" viewBox="0 0 486 211" fill="none" xmlns="http://www.w3.org/2000/svg">
<path d="M325 26.5C325 41.1355 336.864 53 351.5 53H442C466.301 53 486 72.6995 486 97V114C486 138.301 466.301 158 442 158H351.5C336.864 158 325 169.864 325 184.5C325 199.136 313.136 211 298.5 211H187.5C172.864 211 161 199.136 161 184.5C161 169.864 149.136 158 134.5 158H44C19.6995 158 0 138.301 0 114V97C0 72.6995 19.6995 53 44 53H134.5C149.136 53 161 41.1355 161 26.5C161 11.8645 172.864 0 187.5 0H298.5C313.136 0 325 11.8645 325 26.5Z" fill="#EDEFF2"/>
<path d="M89.725 69.2L80.525 86.92V97H75.965V86.92L66.725 69.2H71.805L78.245 82.84L84.685 69.2H89.725ZM102.904 97.36C100.824 97.36 98.9438 96.8933 97.2638 95.96C95.5838 95 94.2638 93.6667 93.3038 91.96C92.3438 90.2267 91.8638 88.2267 91.8638 85.96C91.8638 83.72 92.3571 81.7333 93.3438 80C94.3304 78.2667 95.6771 76.9333 97.3838 76C99.0904 75.0667 100.997 74.6 103.104 74.6C105.21 74.6 107.117 75.0667 108.824 76C110.53 76.9333 111.877 78.2667 112.864 80C113.85 81.7333 114.344 83.72 114.344 85.96C114.344 88.2 113.837 90.1867 112.824 91.92C111.81 93.6533 110.424 95 108.664 95.96C106.93 96.8933 105.01 97.36 102.904 97.36ZM102.904 93.4C104.077 93.4 105.17 93.12 106.184 92.56C107.224 92 108.064 91.16 108.704 90.04C109.344 88.92 109.664 87.56 109.664 85.96C109.664 84.36 109.357 83.0133 108.744 81.92C108.13 80.8 107.317 79.96 106.304 79.4C105.29 78.84 104.197 78.56 103.024 78.56C101.85 78.56 100.757 78.84 99.7438 79.4C98.7571 79.96 97.9704 80.8 97.3838 81.92C96.7971 83.0133 96.5038 84.36 96.5038 85.96C96.5038 88.3333 97.1038 90.1733 98.3038 91.48C99.5304 92.76 101.064 93.4 102.904 93.4ZM138.812 74.96V97H134.252V94.4C133.532 95.3067 132.585 96.0267 131.412 96.56C130.265 97.0667 129.038 97.32 127.732 97.32C125.998 97.32 124.438 96.96 123.052 96.24C121.692 95.52 120.612 94.4533 119.812 93.04C119.038 91.6267 118.652 89.92 118.652 87.92V74.96H123.172V87.24C123.172 89.2133 123.665 90.7333 124.652 91.8C125.638 92.84 126.985 93.36 128.692 93.36C130.398 93.36 131.745 92.84 132.732 91.8C133.745 90.7333 134.252 89.2133 134.252 87.24V74.96H138.812ZM149.388 78.16C150.055 77.04 150.935 76.1733 152.028 75.56C153.148 74.92 154.468 74.6 155.988 74.6V79.32H154.828C153.041 79.32 151.681 79.7733 150.748 80.68C149.841 81.5867 149.388 83.16 149.388 85.4V97H144.828V74.96H149.388V78.16ZM175.13 69.2V97H170.57V69.2H175.13ZM192.237 74.6C193.971 74.6 195.517 74.96 196.877 75.68C198.264 76.4 199.344 77.4667 200.117 78.88C200.891 80.2933 201.277 82 201.277 84V97H196.757V84.68C196.757 82.7067 196.264 81.2 195.277 80.16C194.291 79.0933 192.944 78.56 191.237 78.56C189.531 78.56 188.171 79.0933 187.157 80.16C186.171 81.2 185.677 82.7067 185.677 84.68V97H181.117V74.96H185.677V77.48C186.424 76.5733 187.371 75.8667 188.517 75.36C189.691 74.8533 190.931 74.6 192.237 74.6ZM215.614 92.92L221.854 74.96H226.694L218.294 97H212.854L204.494 74.96H209.374L215.614 92.92ZM250.341 85.44C250.341 86.2667 250.287 87.0133 250.181 87.68H233.341C233.474 89.44 234.127 90.8533 235.301 91.92C236.474 92.9867 237.914 93.52 239.621 93.52C242.074 93.52 243.807 92.4933 244.821 90.44H249.741C249.074 92.4667 247.861 94.1333 246.101 95.44C244.367 96.72 242.207 97.36 239.621 97.36C237.514 97.36 235.621 96.8933 233.941 95.96C232.287 95 230.981 93.6667 230.021 91.96C229.087 90.2267 228.621 88.2267 228.621 85.96C228.621 83.6933 229.074 81.7067 229.981 80C230.914 78.2667 232.207 76.9333 233.861 76C235.541 75.0667 237.461 74.6 239.621 74.6C241.701 74.6 243.554 75.0533 245.181 75.96C246.807 76.8667 248.074 78.1467 248.981 79.8C249.887 81.4267 250.341 83.3067 250.341 85.44ZM245.581 84C245.554 82.32 244.954 80.9733 243.781 79.96C242.607 78.9467 241.154 78.44 239.421 78.44C237.847 78.44 236.501 78.9467 235.381 79.96C234.261 80.9467 233.594 82.2933 233.381 84H245.581ZM262.828 97.36C261.095 97.36 259.535 97.0533 258.148 96.44C256.788 95.8 255.708 94.9467 254.908 93.88C254.108 92.7867 253.681 91.5733 253.628 90.24H258.348C258.428 91.1733 258.868 91.96 259.668 92.6C260.495 93.2133 261.521 93.52 262.748 93.52C264.028 93.52 265.015 93.28 265.708 92.8C266.428 92.2933 266.788 91.6533 266.788 90.88C266.788 90.0533 266.388 89.44 265.588 89.04C264.815 88.64 263.575 88.2 261.868 87.72C260.215 87.2667 258.868 86.8267 257.828 86.4C256.788 85.9733 255.881 85.32 255.108 84.44C254.361 83.56 253.988 82.4 253.988 80.96C253.988 79.7867 254.335 78.72 255.028 77.76C255.721 76.7733 256.708 76 257.988 75.44C259.295 74.88 260.788 74.6 262.468 74.6C264.975 74.6 266.988 75.24 268.508 76.52C270.055 77.7733 270.881 79.4933 270.988 81.68H266.428C266.348 80.6933 265.948 79.9067 265.228 79.32C264.508 78.7333 263.535 78.44 262.308 78.44C261.108 78.44 260.188 78.6667 259.548 79.12C258.908 79.5733 258.588 80.1733 258.588 80.92C258.588 81.5067 258.801 82 259.228 82.4C259.655 82.8 260.175 83.12 260.788 83.36C261.401 83.5733 262.308 83.8533 263.508 84.2C265.108 84.6267 266.415 85.0667 267.428 85.52C268.468 85.9467 269.361 86.5867 270.108 87.44C270.855 88.2933 271.241 89.4267 271.268 90.84C271.268 92.0933 270.921 93.2133 270.228 94.2C269.535 95.1867 268.548 95.96 267.268 96.52C266.015 97.08 264.535 97.36 262.828 97.36ZM281.515 78.68V90.88C281.515 91.7067 281.702 92.3067 282.075 92.68C282.475 93.0267 283.142 93.2 284.075 93.2H286.875V97H283.275C281.222 97 279.649 96.52 278.555 95.56C277.462 94.6 276.915 93.04 276.915 90.88V78.68H274.315V74.96H276.915V69.48H281.515V74.96H286.875V78.68H281.515ZM311.278 85.44C311.278 86.2667 311.225 87.0133 311.118 87.68H294.278C294.411 89.44 295.065 90.8533 296.238 91.92C297.411 92.9867 298.851 93.52 300.558 93.52C303.011 93.52 304.745 92.4933 305.758 90.44H310.678C310.011 92.4667 308.798 94.1333 307.038 95.44C305.305 96.72 303.145 97.36 300.558 97.36C298.451 97.36 296.558 96.8933 294.878 95.96C293.225 95 291.918 93.6667 290.958 91.96C290.025 90.2267 289.558 88.2267 289.558 85.96C289.558 83.6933 290.011 81.7067 290.918 80C291.851 78.2667 293.145 76.9333 294.798 76C296.478 75.0667 298.398 74.6 300.558 74.6C302.638 74.6 304.491 75.0533 306.118 75.96C307.745 76.8667 309.011 78.1467 309.918 79.8C310.825 81.4267 311.278 83.3067 311.278 85.44ZM306.518 84C306.491 82.32 305.891 80.9733 304.718 79.96C303.545 78.9467 302.091 78.44 300.358 78.44C298.785 78.44 297.438 78.9467 296.318 79.96C295.198 80.9467 294.531 82.2933 294.318 84H306.518ZM342.446 74.6C344.179 74.6 345.726 74.96 347.086 75.68C348.472 76.4 349.552 77.4667 350.326 78.88C351.126 80.2933 351.526 82 351.526 84V97H347.006V84.68C347.006 82.7067 346.512 81.2 345.526 80.16C344.539 79.0933 343.192 78.56 341.486 78.56C339.779 78.56 338.419 79.0933 337.406 80.16C336.419 81.2 335.926 82.7067 335.926 84.68V97H331.406V84.68C331.406 82.7067 330.912 81.2 329.926 80.16C328.939 79.0933 327.592 78.56 325.886 78.56C324.179 78.56 322.819 79.0933 321.806 80.16C320.819 81.2 320.326 82.7067 320.326 84.68V97H315.766V74.96H320.326V77.48C321.072 76.5733 322.019 75.8667 323.166 75.36C324.312 74.8533 325.539 74.6 326.846 74.6C328.606 74.6 330.179 74.9733 331.566 75.72C332.952 76.4667 334.019 77.5467 334.766 78.96C335.432 77.6267 336.472 76.5733 337.886 75.8C339.299 75 340.819 74.6 342.446 74.6ZM377.528 85.44C377.528 86.2667 377.475 87.0133 377.368 87.68H360.528C360.661 89.44 361.315 90.8533 362.488 91.92C363.661 92.9867 365.101 93.52 366.808 93.52C369.261 93.52 370.995 92.4933 372.008 90.44H376.928C376.261 92.4667 375.048 94.1333 373.288 95.44C371.555 96.72 369.395 97.36 366.808 97.36C364.701 97.36 362.808 96.8933 361.128 95.96C359.475 95 358.168 93.6667 357.208 91.96C356.275 90.2267 355.808 88.2267 355.808 85.96C355.808 83.6933 356.261 81.7067 357.168 80C358.101 78.2667 359.395 76.9333 361.048 76C362.728 75.0667 364.648 74.6 366.808 74.6C368.888 74.6 370.741 75.0533 372.368 75.96C373.995 76.8667 375.261 78.1467 376.168 79.8C377.075 81.4267 377.528 83.3067 377.528 85.44ZM372.768 84C372.741 82.32 372.141 80.9733 370.968 79.96C369.795 78.9467 368.341 78.44 366.608 78.44C365.035 78.44 363.688 78.9467 362.568 79.96C361.448 80.9467 360.781 82.2933 360.568 84H372.768ZM393.136 74.6C394.869 74.6 396.416 74.96 397.776 75.68C399.162 76.4 400.242 77.4667 401.016 78.88C401.789 80.2933 402.176 82 402.176 84V97H397.656V84.68C397.656 82.7067 397.162 81.2 396.176 80.16C395.189 79.0933 393.842 78.56 392.136 78.56C390.429 78.56 389.069 79.0933 388.056 80.16C387.069 81.2 386.576 82.7067 386.576 84.68V97H382.016V74.96H386.576V77.48C387.322 76.5733 388.269 75.8667 389.416 75.36C390.589 74.8533 391.829 74.6 393.136 74.6ZM413.312 78.68V90.88C413.312 91.7067 413.499 92.3067 413.872 92.68C414.272 93.0267 414.939 93.2 415.872 93.2H418.672V97H415.072C413.019 97 411.446 96.52 410.352 95.56C409.259 94.6 408.712 93.04 408.712 90.88V78.68H406.112V74.96H408.712V69.48H413.312V74.96H418.672V78.68H413.312ZM191.866 137.48C191.866 138.893 191.532 140.227 190.866 141.48C190.199 142.733 189.132 143.76 187.666 144.56C186.199 145.333 184.319 145.72 182.026 145.72H176.986V157H172.426V129.2H182.026C184.159 129.2 185.959 129.573 187.426 130.32C188.919 131.04 190.026 132.027 190.746 133.28C191.492 134.533 191.866 135.933 191.866 137.48ZM182.026 142C183.759 142 185.052 141.613 185.906 140.84C186.759 140.04 187.186 138.92 187.186 137.48C187.186 134.44 185.466 132.92 182.026 132.92H176.986V142H182.026ZM194.695 145.88C194.695 143.667 195.148 141.707 196.055 140C196.988 138.293 198.242 136.973 199.815 136.04C201.415 135.08 203.175 134.6 205.095 134.6C206.828 134.6 208.335 134.947 209.615 135.64C210.922 136.307 211.962 137.147 212.735 138.16V134.96H217.335V157H212.735V153.72C211.962 154.76 210.908 155.627 209.575 156.32C208.242 157.013 206.722 157.36 205.015 157.36C203.122 157.36 201.388 156.88 199.815 155.92C198.242 154.933 196.988 153.573 196.055 151.84C195.148 150.08 194.695 148.093 194.695 145.88ZM212.735 145.96C212.735 144.44 212.415 143.12 211.775 142C211.162 140.88 210.348 140.027 209.335 139.44C208.322 138.853 207.228 138.56 206.055 138.56C204.882 138.56 203.788 138.853 202.775 139.44C201.762 140 200.935 140.84 200.295 141.96C199.682 143.053 199.375 144.36 199.375 145.88C199.375 147.4 199.682 148.733 200.295 149.88C200.935 151.027 201.762 151.907 202.775 152.52C203.815 153.107 204.908 153.4 206.055 153.4C207.228 153.4 208.322 153.107 209.335 152.52C210.348 151.933 211.162 151.08 211.775 149.96C212.415 148.813 212.735 147.48 212.735 145.96ZM227.884 138.16C228.551 137.04 229.431 136.173 230.524 135.56C231.644 134.92 232.964 134.6 234.484 134.6V139.32H233.324C231.538 139.32 230.178 139.773 229.244 140.68C228.338 141.587 227.884 143.16 227.884 145.4V157H223.324V134.96H227.884V138.16ZM243.996 138.68V150.88C243.996 151.707 244.182 152.307 244.556 152.68C244.956 153.027 245.622 153.2 246.556 153.2H249.356V157H245.756C243.702 157 242.129 156.52 241.036 155.56C239.942 154.6 239.396 153.04 239.396 150.88V138.68H236.796V134.96H239.396V129.48H243.996V134.96H249.356V138.68H243.996ZM264.679 134.6C266.412 134.6 267.959 134.96 269.319 135.68C270.705 136.4 271.785 137.467 272.559 138.88C273.332 140.293 273.719 142 273.719 144V157H269.199V144.68C269.199 142.707 268.705 141.2 267.719 140.16C266.732 139.093 265.385 138.56 263.679 138.56C261.972 138.56 260.612 139.093 259.599 140.16C258.612 141.2 258.119 142.707 258.119 144.68V157H253.559V134.96H258.119V137.48C258.865 136.573 259.812 135.867 260.959 135.36C262.132 134.853 263.372 134.6 264.679 134.6ZM299.735 145.44C299.735 146.267 299.682 147.013 299.575 147.68H282.735C282.868 149.44 283.522 150.853 284.695 151.92C285.868 152.987 287.308 153.52 289.015 153.52C291.468 153.52 293.202 152.493 294.215 150.44H299.135C298.468 152.467 297.255 154.133 295.495 155.44C293.762 156.72 291.602 157.36 289.015 157.36C286.908 157.36 285.015 156.893 283.335 155.96C281.682 155 280.375 153.667 279.415 151.96C278.482 150.227 278.015 148.227 278.015 145.96C278.015 143.693 278.468 141.707 279.375 140C280.308 138.267 281.602 136.933 283.255 136C284.935 135.067 286.855 134.6 289.015 134.6C291.095 134.6 292.948 135.053 294.575 135.96C296.202 136.867 297.468 138.147 298.375 139.8C299.282 141.427 299.735 143.307 299.735 145.44ZM294.975 144C294.948 142.32 294.348 140.973 293.175 139.96C292.002 138.947 290.548 138.44 288.815 138.44C287.242 138.44 285.895 138.947 284.775 139.96C283.655 140.947 282.988 142.293 282.775 144H294.975ZM308.783 138.16C309.449 137.04 310.329 136.173 311.423 135.56C312.543 134.92 313.863 134.6 315.383 134.6V139.32H314.223C312.436 139.32 311.076 139.773 310.143 140.68C309.236 141.587 308.783 143.16 308.783 145.4V157H304.223V134.96H308.783V138.16Z" fill="#141414"/>
<rect width="161" height="53" rx="26.5" fill="#E9F4F7"/>
<path d="M22.7108 23.728C22.7108 24.3993 22.5524 25.0327 22.2358 25.628C21.9191 26.2233 21.4124 26.711 20.7158 27.091C20.0191 27.4583 19.1261 27.642 18.0368 27.642H15.6428V33H13.4768V19.795H18.0368C19.0501 19.795 19.9051 19.9723 20.6018 20.327C21.3111 20.669 21.8368 21.1377 22.1788 21.733C22.5334 22.3283 22.7108 22.9933 22.7108 23.728ZM18.0368 25.875C18.8601 25.875 19.4744 25.6913 19.8798 25.324C20.2851 24.944 20.4878 24.412 20.4878 23.728C20.4878 22.284 19.6708 21.562 18.0368 21.562H15.6428V25.875H18.0368ZM26.9426 24.051C27.2592 23.519 27.6772 23.1073 28.1966 22.816C28.7286 22.512 29.3556 22.36 30.0776 22.36V24.602H29.5266C28.6779 24.602 28.0319 24.8173 27.5886 25.248C27.1579 25.6787 26.9426 26.426 26.9426 27.49V33H24.7766V22.531H26.9426V24.051ZM36.6096 33.171C35.6216 33.171 34.7286 32.9493 33.9306 32.506C33.1326 32.05 32.5056 31.4167 32.0496 30.606C31.5936 29.7827 31.3656 28.8327 31.3656 27.756C31.3656 26.692 31.5999 25.7483 32.0686 24.925C32.5372 24.1017 33.1769 23.4683 33.9876 23.025C34.7982 22.5817 35.7039 22.36 36.7046 22.36C37.7052 22.36 38.6109 22.5817 39.4216 23.025C40.2322 23.4683 40.8719 24.1017 41.3406 24.925C41.8092 25.7483 42.0436 26.692 42.0436 27.756C42.0436 28.82 41.8029 29.7637 41.3216 30.587C40.8402 31.4103 40.1816 32.05 39.3456 32.506C38.5222 32.9493 37.6102 33.171 36.6096 33.171ZM36.6096 31.29C37.1669 31.29 37.6862 31.157 38.1676 30.891C38.6616 30.625 39.0606 30.226 39.3646 29.694C39.6686 29.162 39.8206 28.516 39.8206 27.756C39.8206 26.996 39.6749 26.3563 39.3836 25.837C39.0922 25.305 38.7059 24.906 38.2246 24.64C37.7432 24.374 37.2239 24.241 36.6666 24.241C36.1092 24.241 35.5899 24.374 35.1086 24.64C34.6399 24.906 34.2662 25.305 33.9876 25.837C33.7089 26.3563 33.5696 26.996 33.5696 27.756C33.5696 28.8833 33.8546 29.7573 34.4246 30.378C35.0072 30.986 35.7356 31.29 36.6096 31.29ZM46.3508 24.07C46.7181 23.5887 47.2184 23.1833 47.8518 22.854C48.4851 22.5247 49.2008 22.36 49.9988 22.36C50.9108 22.36 51.7404 22.588 52.4878 23.044C53.2478 23.4873 53.8431 24.1143 54.2738 24.925C54.7044 25.7357 54.9198 26.6667 54.9198 27.718C54.9198 28.7693 54.7044 29.713 54.2738 30.549C53.8431 31.3723 53.2478 32.0183 52.4878 32.487C51.7404 32.943 50.9108 33.171 49.9988 33.171C49.2008 33.171 48.4914 33.0127 47.8708 32.696C47.2501 32.3667 46.7434 31.9613 46.3508 31.48V37.978H44.1848V22.531H46.3508V24.07ZM52.7158 27.718C52.7158 26.996 52.5638 26.3753 52.2598 25.856C51.9684 25.324 51.5758 24.925 51.0818 24.659C50.6004 24.3803 50.0811 24.241 49.5238 24.241C48.9791 24.241 48.4598 24.3803 47.9658 24.659C47.4844 24.9377 47.0918 25.343 46.7878 25.875C46.4964 26.407 46.3508 27.034 46.3508 27.756C46.3508 28.478 46.4964 29.1113 46.7878 29.656C47.0918 30.188 47.4844 30.5933 47.9658 30.872C48.4598 31.1507 48.9791 31.29 49.5238 31.29C50.0811 31.29 50.6004 31.1507 51.0818 30.872C51.5758 30.5807 51.9684 30.1627 52.2598 29.618C52.5638 29.0733 52.7158 28.44 52.7158 27.718ZM66.6567 27.509C66.6567 27.9017 66.6314 28.2563 66.5807 28.573H58.5817C58.6451 29.409 58.9554 30.0803 59.5127 30.587C60.0701 31.0937 60.7541 31.347 61.5647 31.347C62.7301 31.347 63.5534 30.8593 64.0347 29.884H66.3717C66.0551 30.8467 65.4787 31.6383 64.6427 32.259C63.8194 32.867 62.7934 33.171 61.5647 33.171C60.5641 33.171 59.6647 32.9493 58.8667 32.506C58.0814 32.05 57.4607 31.4167 57.0047 30.606C56.5614 29.7827 56.3397 28.8327 56.3397 27.756C56.3397 26.6793 56.5551 25.7357 56.9857 24.925C57.4291 24.1017 58.0434 23.4683 58.8287 23.025C59.6267 22.5817 60.5387 22.36 61.5647 22.36C62.5527 22.36 63.4331 22.5753 64.2057 23.006C64.9784 23.4367 65.5801 24.0447 66.0107 24.83C66.4414 25.6027 66.6567 26.4957 66.6567 27.509ZM64.3957 26.825C64.3831 26.027 64.0981 25.3873 63.5407 24.906C62.9834 24.4247 62.2931 24.184 61.4697 24.184C60.7224 24.184 60.0827 24.4247 59.5507 24.906C59.0187 25.3747 58.7021 26.0143 58.6007 26.825H64.3957ZM70.9543 24.051C71.2709 23.519 71.6889 23.1073 72.2083 22.816C72.7403 22.512 73.3673 22.36 74.0893 22.36V24.602H73.5383C72.6896 24.602 72.0436 24.8173 71.6003 25.248C71.1696 25.6787 70.9543 26.426 70.9543 27.49V33H68.7883V22.531H70.9543V24.051ZM78.6073 24.298V30.093C78.6073 30.4857 78.6959 30.7707 78.8733 30.948C79.0633 31.1127 79.3799 31.195 79.8233 31.195H81.1533V33H79.4433C78.4679 33 77.7206 32.772 77.2013 32.316C76.6819 31.86 76.4223 31.119 76.4223 30.093V24.298H75.1873V22.531H76.4223V19.928H78.6073V22.531H81.1533V24.298H78.6073ZM92.5736 22.531L86.1516 37.921H83.9096L86.0376 32.829L81.9146 22.531H84.3276L87.2726 30.511L90.3316 22.531H92.5736ZM103.495 33.133C102.608 33.133 101.81 32.981 101.101 32.677C100.391 32.3603 99.8341 31.917 99.4288 31.347C99.0234 30.777 98.8208 30.112 98.8208 29.352H101.139C101.189 29.922 101.411 30.3907 101.804 30.758C102.209 31.1253 102.773 31.309 103.495 31.309C104.242 31.309 104.825 31.1317 105.243 30.777C105.661 30.4097 105.87 29.941 105.87 29.371C105.87 28.9277 105.737 28.5667 105.471 28.288C105.217 28.0093 104.894 27.794 104.502 27.642C104.122 27.49 103.59 27.3253 102.906 27.148C102.044 26.92 101.341 26.692 100.797 26.464C100.265 26.2233 99.8088 25.856 99.4288 25.362C99.0488 24.868 98.8588 24.2093 98.8588 23.386C98.8588 22.626 99.0488 21.961 99.4288 21.391C99.8088 20.821 100.341 20.384 101.025 20.08C101.709 19.776 102.5 19.624 103.4 19.624C104.679 19.624 105.724 19.947 106.535 20.593C107.358 21.2263 107.814 22.1003 107.903 23.215H105.509C105.471 22.7337 105.243 22.322 104.825 21.98C104.407 21.638 103.856 21.467 103.172 21.467C102.551 21.467 102.044 21.6253 101.652 21.942C101.259 22.2587 101.063 22.7147 101.063 23.31C101.063 23.7153 101.183 24.051 101.424 24.317C101.677 24.5703 101.994 24.773 102.374 24.925C102.754 25.077 103.273 25.2417 103.932 25.419C104.806 25.6597 105.515 25.9003 106.06 26.141C106.617 26.3817 107.086 26.7553 107.466 27.262C107.858 27.756 108.055 28.421 108.055 29.257C108.055 29.9283 107.871 30.5617 107.504 31.157C107.149 31.7523 106.623 32.2337 105.927 32.601C105.243 32.9557 104.432 33.133 103.495 33.133ZM109.889 27.718C109.889 26.6667 110.104 25.7357 110.535 24.925C110.978 24.1143 111.573 23.4873 112.321 23.044C113.081 22.588 113.917 22.36 114.829 22.36C115.652 22.36 116.368 22.5247 116.976 22.854C117.596 23.1707 118.09 23.5697 118.458 24.051V22.531H120.643V33H118.458V31.442C118.09 31.936 117.59 32.3477 116.957 32.677C116.323 33.0063 115.601 33.171 114.791 33.171C113.891 33.171 113.068 32.943 112.321 32.487C111.573 32.0183 110.978 31.3723 110.535 30.549C110.104 29.713 109.889 28.7693 109.889 27.718ZM118.458 27.756C118.458 27.034 118.306 26.407 118.002 25.875C117.71 25.343 117.324 24.9377 116.843 24.659C116.361 24.3803 115.842 24.241 115.285 24.241C114.727 24.241 114.208 24.3803 113.727 24.659C113.245 24.925 112.853 25.324 112.549 25.856C112.257 26.3753 112.112 26.996 112.112 27.718C112.112 28.44 112.257 29.0733 112.549 29.618C112.853 30.1627 113.245 30.5807 113.727 30.872C114.221 31.1507 114.74 31.29 115.285 31.29C115.842 31.29 116.361 31.1507 116.843 30.872C117.324 30.5933 117.71 30.188 118.002 29.656C118.306 29.1113 118.458 28.478 118.458 27.756ZM125.654 18.94V33H123.488V18.94H125.654ZM138.092 27.509C138.092 27.9017 138.067 28.2563 138.016 28.573H130.017C130.081 29.409 130.391 30.0803 130.948 30.587C131.506 31.0937 132.19 31.347 133 31.347C134.166 31.347 134.989 30.8593 135.47 29.884H137.807C137.491 30.8467 136.914 31.6383 136.078 32.259C135.255 32.867 134.229 33.171 133 33.171C132 33.171 131.1 32.9493 130.302 32.506C129.517 32.05 128.896 31.4167 128.44 30.606C127.997 29.7827 127.775 28.8327 127.775 27.756C127.775 26.6793 127.991 25.7357 128.421 24.925C128.865 24.1017 129.479 23.4683 130.264 23.025C131.062 22.5817 131.974 22.36 133 22.36C133.988 22.36 134.869 22.5753 135.641 23.006C136.414 23.4367 137.016 24.0447 137.446 24.83C137.877 25.6027 138.092 26.4957 138.092 27.509ZM135.831 26.825C135.819 26.027 135.534 25.3873 134.976 24.906C134.419 24.4247 133.729 24.184 132.905 24.184C132.158 24.184 131.518 24.4247 130.986 24.906C130.454 25.3747 130.138 26.0143 130.036 26.825H135.831ZM144.024 33.171C143.2 33.171 142.459 33.0253 141.801 32.734C141.155 32.43 140.642 32.0247 140.262 31.518C139.882 30.9987 139.679 30.4223 139.654 29.789H141.896C141.934 30.2323 142.143 30.606 142.523 30.91C142.915 31.2013 143.403 31.347 143.986 31.347C144.594 31.347 145.062 31.233 145.392 31.005C145.734 30.7643 145.905 30.4603 145.905 30.093C145.905 29.7003 145.715 29.409 145.335 29.219C144.967 29.029 144.378 28.82 143.568 28.592C142.782 28.3767 142.143 28.1677 141.649 27.965C141.155 27.7623 140.724 27.452 140.357 27.034C140.002 26.616 139.825 26.065 139.825 25.381C139.825 24.8237 139.989 24.317 140.319 23.861C140.648 23.3923 141.117 23.025 141.725 22.759C142.345 22.493 143.055 22.36 143.853 22.36C145.043 22.36 146 22.664 146.722 23.272C147.456 23.8673 147.849 24.6843 147.9 25.723H145.734C145.696 25.2543 145.506 24.8807 145.164 24.602C144.822 24.3233 144.359 24.184 143.777 24.184C143.207 24.184 142.77 24.2917 142.466 24.507C142.162 24.7223 142.01 25.0073 142.01 25.362C142.01 25.6407 142.111 25.875 142.314 26.065C142.516 26.255 142.763 26.407 143.055 26.521C143.346 26.6223 143.777 26.7553 144.347 26.92C145.107 27.1227 145.727 27.3317 146.209 27.547C146.703 27.7497 147.127 28.0537 147.482 28.459C147.836 28.8643 148.02 29.4027 148.033 30.074C148.033 30.6693 147.868 31.2013 147.539 31.67C147.209 32.1387 146.741 32.506 146.133 32.772C145.537 33.038 144.834 33.171 144.024 33.171Z" fill="#141414"/>
<rect x="325" width="88" height="53" rx="26.5" fill="#E9F4F7"/>
<path d="M345.537 33L342.497 27.718H340.844V33H338.678V19.795H343.238C344.251 19.795 345.106 19.9723 345.803 20.327C346.512 20.6817 347.038 21.1567 347.38 21.752C347.735 22.3473 347.912 23.0123 347.912 23.747C347.912 24.6083 347.659 25.3937 347.152 26.103C346.658 26.7997 345.892 27.2747 344.853 27.528L348.121 33H345.537ZM340.844 25.989H343.238C344.049 25.989 344.657 25.7863 345.062 25.381C345.48 24.9757 345.689 24.431 345.689 23.747C345.689 23.063 345.486 22.531 345.081 22.151C344.676 21.7583 344.061 21.562 343.238 21.562H340.844V25.989ZM360.278 27.509C360.278 27.9017 360.252 28.2563 360.202 28.573H352.203C352.266 29.409 352.576 30.0803 353.134 30.587C353.691 31.0937 354.375 31.347 355.186 31.347C356.351 31.347 357.174 30.8593 357.656 29.884H359.993C359.676 30.8467 359.1 31.6383 358.264 32.259C357.44 32.867 356.414 33.171 355.186 33.171C354.185 33.171 353.286 32.9493 352.488 32.506C351.702 32.05 351.082 31.4167 350.626 30.606C350.182 29.7827 349.961 28.8327 349.961 27.756C349.961 26.6793 350.176 25.7357 350.607 24.925C351.05 24.1017 351.664 23.4683 352.45 23.025C353.248 22.5817 354.16 22.36 355.186 22.36C356.174 22.36 357.054 22.5753 357.827 23.006C358.599 23.4367 359.201 24.0447 359.632 24.83C360.062 25.6027 360.278 26.4957 360.278 27.509ZM358.017 26.825C358.004 26.027 357.719 25.3873 357.162 24.906C356.604 24.4247 355.914 24.184 355.091 24.184C354.343 24.184 353.704 24.4247 353.172 24.906C352.64 25.3747 352.323 26.0143 352.222 26.825H358.017ZM366.209 33.171C365.386 33.171 364.645 33.0253 363.986 32.734C363.34 32.43 362.827 32.0247 362.447 31.518C362.067 30.9987 361.865 30.4223 361.839 29.789H364.081C364.119 30.2323 364.328 30.606 364.708 30.91C365.101 31.2013 365.589 31.347 366.171 31.347C366.779 31.347 367.248 31.233 367.577 31.005C367.919 30.7643 368.09 30.4603 368.09 30.093C368.09 29.7003 367.9 29.409 367.52 29.219C367.153 29.029 366.564 28.82 365.753 28.592C364.968 28.3767 364.328 28.1677 363.834 27.965C363.34 27.7623 362.91 27.452 362.542 27.034C362.188 26.616 362.01 26.065 362.01 25.381C362.01 24.8237 362.175 24.317 362.504 23.861C362.834 23.3923 363.302 23.025 363.91 22.759C364.531 22.493 365.24 22.36 366.038 22.36C367.229 22.36 368.185 22.664 368.907 23.272C369.642 23.8673 370.035 24.6843 370.085 25.723H367.919C367.881 25.2543 367.691 24.8807 367.349 24.602C367.007 24.3233 366.545 24.184 365.962 24.184C365.392 24.184 364.955 24.2917 364.651 24.507C364.347 24.7223 364.195 25.0073 364.195 25.362C364.195 25.6407 364.297 25.875 364.499 26.065C364.702 26.255 364.949 26.407 365.24 26.521C365.532 26.6223 365.962 26.7553 366.532 26.92C367.292 27.1227 367.913 27.3317 368.394 27.547C368.888 27.7497 369.313 28.0537 369.667 28.459C370.022 28.8643 370.206 29.4027 370.218 30.074C370.218 30.6693 370.054 31.2013 369.724 31.67C369.395 32.1387 368.926 32.506 368.318 32.772C367.723 33.038 367.02 33.171 366.209 33.171ZM371.837 27.718C371.837 26.6667 372.052 25.7357 372.483 24.925C372.926 24.1143 373.521 23.4873 374.269 23.044C375.029 22.588 375.865 22.36 376.777 22.36C377.6 22.36 378.316 22.5247 378.924 22.854C379.544 23.1707 380.038 23.5697 380.406 24.051V22.531H382.591V33H380.406V31.442C380.038 31.936 379.538 32.3477 378.905 32.677C378.271 33.0063 377.549 33.171 376.739 33.171C375.839 33.171 375.016 32.943 374.269 32.487C373.521 32.0183 372.926 31.3723 372.483 30.549C372.052 29.713 371.837 28.7693 371.837 27.718ZM380.406 27.756C380.406 27.034 380.254 26.407 379.95 25.875C379.658 25.343 379.272 24.9377 378.791 24.659C378.309 24.3803 377.79 24.241 377.233 24.241C376.675 24.241 376.156 24.3803 375.675 24.659C375.193 24.925 374.801 25.324 374.497 25.856C374.205 26.3753 374.06 26.996 374.06 27.718C374.06 28.44 374.205 29.0733 374.497 29.618C374.801 30.1627 375.193 30.5807 375.675 30.872C376.169 31.1507 376.688 31.29 377.233 31.29C377.79 31.29 378.309 31.1507 378.791 30.872C379.272 30.5933 379.658 30.188 379.95 29.656C380.254 29.1113 380.406 28.478 380.406 27.756ZM387.602 18.94V33H385.436V18.94H387.602ZM400.041 27.509C400.041 27.9017 400.015 28.2563 399.965 28.573H391.966C392.029 29.409 392.339 30.0803 392.897 30.587C393.454 31.0937 394.138 31.347 394.949 31.347C396.114 31.347 396.937 30.8593 397.419 29.884H399.756C399.439 30.8467 398.863 31.6383 398.027 32.259C397.203 32.867 396.177 33.171 394.949 33.171C393.948 33.171 393.049 32.9493 392.251 32.506C391.465 32.05 390.845 31.4167 390.389 30.606C389.945 29.7827 389.724 28.8327 389.724 27.756C389.724 26.6793 389.939 25.7357 390.37 24.925C390.813 24.1017 391.427 23.4683 392.213 23.025C393.011 22.5817 393.923 22.36 394.949 22.36C395.937 22.36 396.817 22.5753 397.59 23.006C398.362 23.4367 398.964 24.0447 399.395 24.83C399.825 25.6027 400.041 26.4957 400.041 27.509ZM397.78 26.825C397.767 26.027 397.482 25.3873 396.925 24.906C396.367 24.4247 395.677 24.184 394.854 24.184C394.106 24.184 393.467 24.4247 392.935 24.906C392.403 25.3747 392.086 26.0143 391.985 26.825H397.78Z" fill="#141414"/>
<rect x="325" y="158" width="155" height="53" rx="26.5" fill="#E9F4F7"/>
<path d="M352.669 177.795V191H350.503V181.956L346.475 191H344.974L340.927 181.956V191H338.761V177.795H341.098L345.734 188.15L350.351 177.795H352.669ZM354.794 185.718C354.794 184.667 355.009 183.736 355.44 182.925C355.883 182.114 356.478 181.487 357.226 181.044C357.986 180.588 358.822 180.36 359.734 180.36C360.557 180.36 361.273 180.525 361.881 180.854C362.501 181.171 362.995 181.57 363.363 182.051V180.531H365.548V191H363.363V189.442C362.995 189.936 362.495 190.348 361.862 190.677C361.228 191.006 360.506 191.171 359.696 191.171C358.796 191.171 357.973 190.943 357.226 190.487C356.478 190.018 355.883 189.372 355.44 188.549C355.009 187.713 354.794 186.769 354.794 185.718ZM363.363 185.756C363.363 185.034 363.211 184.407 362.907 183.875C362.615 183.343 362.229 182.938 361.748 182.659C361.266 182.38 360.747 182.241 360.19 182.241C359.632 182.241 359.113 182.38 358.632 182.659C358.15 182.925 357.758 183.324 357.454 183.856C357.162 184.375 357.017 184.996 357.017 185.718C357.017 186.44 357.162 187.073 357.454 187.618C357.758 188.163 358.15 188.581 358.632 188.872C359.126 189.151 359.645 189.29 360.19 189.29C360.747 189.29 361.266 189.151 361.748 188.872C362.229 188.593 362.615 188.188 362.907 187.656C363.211 187.111 363.363 186.478 363.363 185.756ZM373.675 180.36C374.498 180.36 375.233 180.531 375.879 180.873C376.537 181.215 377.05 181.722 377.418 182.393C377.785 183.064 377.969 183.875 377.969 184.825V191H375.822V185.148C375.822 184.211 375.587 183.495 375.119 183.001C374.65 182.494 374.01 182.241 373.2 182.241C372.389 182.241 371.743 182.494 371.262 183.001C370.793 183.495 370.559 184.211 370.559 185.148V191H368.393V180.531H370.559V181.728C370.913 181.297 371.363 180.962 371.908 180.721C372.465 180.48 373.054 180.36 373.675 180.36ZM380.01 185.718C380.01 184.667 380.225 183.736 380.656 182.925C381.099 182.114 381.694 181.487 382.442 181.044C383.202 180.588 384.038 180.36 384.95 180.36C385.773 180.36 386.489 180.525 387.097 180.854C387.717 181.171 388.211 181.57 388.579 182.051V180.531H390.764V191H388.579V189.442C388.211 189.936 387.711 190.348 387.078 190.677C386.444 191.006 385.722 191.171 384.912 191.171C384.012 191.171 383.189 190.943 382.442 190.487C381.694 190.018 381.099 189.372 380.656 188.549C380.225 187.713 380.01 186.769 380.01 185.718ZM388.579 185.756C388.579 185.034 388.427 184.407 388.123 183.875C387.831 183.343 387.445 182.938 386.964 182.659C386.482 182.38 385.963 182.241 385.406 182.241C384.848 182.241 384.329 182.38 383.848 182.659C383.366 182.925 382.974 183.324 382.67 183.856C382.378 184.375 382.233 184.996 382.233 185.718C382.233 186.44 382.378 187.073 382.67 187.618C382.974 188.163 383.366 188.581 383.848 188.872C384.342 189.151 384.861 189.29 385.406 189.29C385.963 189.29 386.482 189.151 386.964 188.872C387.445 188.593 387.831 188.188 388.123 187.656C388.427 187.111 388.579 186.478 388.579 185.756ZM397.827 180.36C398.637 180.36 399.353 180.525 399.974 180.854C400.607 181.171 401.101 181.57 401.456 182.051V180.531H403.641V191.171C403.641 192.134 403.438 192.989 403.033 193.736C402.627 194.496 402.038 195.091 401.266 195.522C400.506 195.953 399.594 196.168 398.53 196.168C397.111 196.168 395.933 195.832 394.996 195.161C394.058 194.502 393.526 193.603 393.4 192.463H395.547C395.711 193.008 396.06 193.445 396.592 193.774C397.136 194.116 397.782 194.287 398.53 194.287C399.404 194.287 400.107 194.021 400.639 193.489C401.183 192.957 401.456 192.184 401.456 191.171V189.423C401.088 189.917 400.588 190.335 399.955 190.677C399.334 191.006 398.625 191.171 397.827 191.171C396.915 191.171 396.079 190.943 395.319 190.487C394.571 190.018 393.976 189.372 393.533 188.549C393.102 187.713 392.887 186.769 392.887 185.718C392.887 184.667 393.102 183.736 393.533 182.925C393.976 182.114 394.571 181.487 395.319 181.044C396.079 180.588 396.915 180.36 397.827 180.36ZM401.456 185.756C401.456 185.034 401.304 184.407 401 183.875C400.708 183.343 400.322 182.938 399.841 182.659C399.359 182.38 398.84 182.241 398.283 182.241C397.725 182.241 397.206 182.38 396.725 182.659C396.243 182.925 395.851 183.324 395.547 183.856C395.255 184.375 395.11 184.996 395.11 185.718C395.11 186.44 395.255 187.073 395.547 187.618C395.851 188.163 396.243 188.581 396.725 188.872C397.219 189.151 397.738 189.29 398.283 189.29C398.84 189.29 399.359 189.151 399.841 188.872C400.322 188.593 400.708 188.188 401 187.656C401.304 187.111 401.456 186.478 401.456 185.756ZM416.081 185.509C416.081 185.902 416.055 186.256 416.005 186.573H408.006C408.069 187.409 408.379 188.08 408.937 188.587C409.494 189.094 410.178 189.347 410.989 189.347C412.154 189.347 412.977 188.859 413.459 187.884H415.796C415.479 188.847 414.903 189.638 414.067 190.259C413.243 190.867 412.217 191.171 410.989 191.171C409.988 191.171 409.089 190.949 408.291 190.506C407.505 190.05 406.885 189.417 406.429 188.606C405.985 187.783 405.764 186.833 405.764 185.756C405.764 184.679 405.979 183.736 406.41 182.925C406.853 182.102 407.467 181.468 408.253 181.025C409.051 180.582 409.963 180.36 410.989 180.36C411.977 180.36 412.857 180.575 413.63 181.006C414.402 181.437 415.004 182.045 415.435 182.83C415.865 183.603 416.081 184.496 416.081 185.509ZM413.82 184.825C413.807 184.027 413.522 183.387 412.965 182.906C412.407 182.425 411.717 182.184 410.894 182.184C410.146 182.184 409.507 182.425 408.975 182.906C408.443 183.375 408.126 184.014 408.025 184.825H413.82ZM430.885 180.36C431.708 180.36 432.443 180.531 433.089 180.873C433.748 181.215 434.261 181.722 434.628 182.393C435.008 183.064 435.198 183.875 435.198 184.825V191H433.051V185.148C433.051 184.211 432.817 183.495 432.348 183.001C431.879 182.494 431.24 182.241 430.429 182.241C429.618 182.241 428.972 182.494 428.491 183.001C428.022 183.495 427.788 184.211 427.788 185.148V191H425.641V185.148C425.641 184.211 425.407 183.495 424.938 183.001C424.469 182.494 423.83 182.241 423.019 182.241C422.208 182.241 421.562 182.494 421.081 183.001C420.612 183.495 420.378 184.211 420.378 185.148V191H418.212V180.531H420.378V181.728C420.733 181.297 421.182 180.962 421.727 180.721C422.272 180.48 422.854 180.36 423.475 180.36C424.311 180.36 425.058 180.537 425.717 180.892C426.376 181.247 426.882 181.76 427.237 182.431C427.554 181.798 428.048 181.297 428.719 180.93C429.39 180.55 430.112 180.36 430.885 180.36ZM447.549 185.509C447.549 185.902 447.524 186.256 447.473 186.573H439.474C439.538 187.409 439.848 188.08 440.405 188.587C440.963 189.094 441.647 189.347 442.457 189.347C443.623 189.347 444.446 188.859 444.927 187.884H447.264C446.948 188.847 446.371 189.638 445.535 190.259C444.712 190.867 443.686 191.171 442.457 191.171C441.457 191.171 440.557 190.949 439.759 190.506C438.974 190.05 438.353 189.417 437.897 188.606C437.454 187.783 437.232 186.833 437.232 185.756C437.232 184.679 437.448 183.736 437.878 182.925C438.322 182.102 438.936 181.468 439.721 181.025C440.519 180.582 441.431 180.36 442.457 180.36C443.445 180.36 444.326 180.575 445.098 181.006C445.871 181.437 446.473 182.045 446.903 182.83C447.334 183.603 447.549 184.496 447.549 185.509ZM445.288 184.825C445.276 184.027 444.991 183.387 444.433 182.906C443.876 182.425 443.186 182.184 442.362 182.184C441.615 182.184 440.975 182.425 440.443 182.906C439.911 183.375 439.595 184.014 439.493 184.825H445.288ZM454.963 180.36C455.786 180.36 456.521 180.531 457.167 180.873C457.826 181.215 458.339 181.722 458.706 182.393C459.073 183.064 459.257 183.875 459.257 184.825V191H457.11V185.148C457.11 184.211 456.876 183.495 456.407 183.001C455.938 182.494 455.299 182.241 454.488 182.241C453.677 182.241 453.031 182.494 452.55 183.001C452.081 183.495 451.847 184.211 451.847 185.148V191H449.681V180.531H451.847V181.728C452.202 181.297 452.651 180.962 453.196 180.721C453.753 180.48 454.342 180.36 454.963 180.36ZM464.547 182.298V188.093C464.547 188.486 464.635 188.771 464.813 188.948C465.003 189.113 465.319 189.195 465.763 189.195H467.093V191H465.383C464.407 191 463.66 190.772 463.141 190.316C462.621 189.86 462.362 189.119 462.362 188.093V182.298H461.127V180.531H462.362V177.928H464.547V180.531H467.093V182.298H464.547Z" fill="#141414"/>
<rect x="93" y="158" width="68" height="53" rx="26.5" fill="#E9F4F7"/>
<path d="M113.714 191L110.674 185.718H109.021V191H106.855V177.795H111.415C112.429 177.795 113.284 177.972 113.98 178.327C114.69 178.682 115.215 179.157 115.557 179.752C115.912 180.347 116.089 181.012 116.089 181.747C116.089 182.608 115.836 183.394 115.329 184.103C114.835 184.8 114.069 185.275 113.03 185.528L116.298 191H113.714ZM109.021 183.989H111.415C112.226 183.989 112.834 183.786 113.239 183.381C113.657 182.976 113.866 182.431 113.866 181.747C113.866 181.063 113.664 180.531 113.258 180.151C112.853 179.758 112.239 179.562 111.415 179.562H109.021V183.989ZM128.455 185.509C128.455 185.902 128.43 186.256 128.379 186.573H120.38C120.443 187.409 120.754 188.08 121.311 188.587C121.868 189.094 122.552 189.347 123.363 189.347C124.528 189.347 125.352 188.859 125.833 187.884H128.17C127.853 188.847 127.277 189.638 126.441 190.259C125.618 190.867 124.592 191.171 123.363 191.171C122.362 191.171 121.463 190.949 120.665 190.506C119.88 190.05 119.259 189.417 118.803 188.606C118.36 187.783 118.138 186.833 118.138 185.756C118.138 184.679 118.353 183.736 118.784 182.925C119.227 182.102 119.842 181.468 120.627 181.025C121.425 180.582 122.337 180.36 123.363 180.36C124.351 180.36 125.231 180.575 126.004 181.006C126.777 181.437 127.378 182.045 127.809 182.83C128.24 183.603 128.455 184.496 128.455 185.509ZM126.194 184.825C126.181 184.027 125.896 183.387 125.339 182.906C124.782 182.425 124.091 182.184 123.268 182.184C122.521 182.184 121.881 182.425 121.349 182.906C120.817 183.375 120.5 184.014 120.399 184.825H126.194ZM135.869 180.36C136.692 180.36 137.427 180.531 138.073 180.873C138.731 181.215 139.244 181.722 139.612 182.393C139.979 183.064 140.163 183.875 140.163 184.825V191H138.016V185.148C138.016 184.211 137.781 183.495 137.313 183.001C136.844 182.494 136.204 182.241 135.394 182.241C134.583 182.241 133.937 182.494 133.456 183.001C132.987 183.495 132.753 184.211 132.753 185.148V191H130.587V180.531H132.753V181.728C133.107 181.297 133.557 180.962 134.102 180.721C134.659 180.48 135.248 180.36 135.869 180.36ZM145.452 182.298V188.093C145.452 188.486 145.541 188.771 145.718 188.948C145.908 189.113 146.225 189.195 146.668 189.195H147.998V191H146.288C145.313 191 144.566 190.772 144.046 190.316C143.527 189.86 143.267 189.119 143.267 188.093V182.298H142.032V180.531H143.267V177.928H145.452V180.531H147.998V182.298H145.452Z" fill="#141414"/>
</svg>
