<svg width="90" height="97" viewBox="0 0 90 97" fill="none" xmlns="http://www.w3.org/2000/svg">
<path d="M14.5922 0V1.71875L13.7328 0.859375V58.4376H2.56092C2.333 58.4376 2.11443 58.528 1.95326 58.6892C1.7921 58.8503 1.70155 59.0691 1.70155 59.297V66.172C1.70155 66.3999 1.7921 66.6184 1.95326 66.7796C2.11443 66.9408 2.333 67.0314 2.56092 67.0314H5.13905V87.6564H2.56092C2.333 87.6564 2.11443 87.7467 1.95326 87.9079C1.7921 88.0691 1.70155 88.2878 1.70155 88.5157V94.5314H0.859375C0.631455 94.5314 0.412855 94.6217 0.251691 94.7829C0.0905273 94.9441 0 95.1628 0 95.3907C0 95.6187 0.0905273 95.8372 0.251691 95.9983C0.412855 96.1595 0.631455 96.2501 0.859375 96.2501H88.495C88.7229 96.2501 88.9415 96.1595 89.1027 95.9983C89.2638 95.8372 89.3544 95.6187 89.3544 95.3907C89.3544 95.1628 89.2638 94.9441 89.1027 94.7829C88.9415 94.6217 88.7229 94.5314 88.495 94.5314H87.639V88.5157C87.639 88.2878 87.5485 88.0691 87.3874 87.9079C87.2262 87.7467 87.0076 87.6564 86.7797 87.6564H84.2015V67.0314H86.7797C87.0076 67.0314 87.2262 66.9408 87.3874 66.7796C87.5485 66.6184 87.639 66.3999 87.639 66.172V59.297C87.639 59.0691 87.5485 58.8503 87.3874 58.6892C87.2262 58.528 87.0076 58.4376 86.7797 58.4376H75.6078V0.859375C75.6078 0.631455 75.5173 0.412829 75.3561 0.251665C75.1949 0.090501 74.9763 0 74.7484 0H14.5922ZM15.4515 1.71875H73.889V58.4376H15.4515V1.71875ZM21.4672 6.875C21.2393 6.875 21.0207 6.9655 20.8595 7.12667C20.6983 7.28783 20.6078 7.50645 20.6078 7.73438V19.7656C20.6078 19.9935 20.6983 20.2122 20.8595 20.3733C21.0207 20.5345 21.2393 20.625 21.4672 20.625H33.4984C33.7263 20.625 33.9449 20.5345 34.1061 20.3733C34.2673 20.2122 34.3578 19.9935 34.3578 19.7656V7.73438C34.3578 7.50645 34.2673 7.28783 34.1061 7.12667C33.9449 6.9655 33.7263 6.875 33.4984 6.875H21.4672ZM38.6547 6.875C38.4268 6.875 38.2082 6.9655 38.047 7.12667C37.8858 7.28783 37.7953 7.50645 37.7953 7.73438V19.7656C37.7953 19.9935 37.8858 20.2122 38.047 20.3733C38.2082 20.5345 38.4268 20.625 38.6547 20.625H50.6859C50.9138 20.625 51.1324 20.5345 51.2936 20.3733C51.4548 20.2122 51.5453 19.9935 51.5453 19.7656V7.73438C51.5453 7.50645 51.4548 7.28783 51.2936 7.12667C51.1324 6.9655 50.9138 6.875 50.6859 6.875H38.6547ZM55.8422 6.875C55.6143 6.875 55.3957 6.9655 55.2345 7.12667C55.0733 7.28783 54.9828 7.50645 54.9828 7.73438V19.7656C54.9828 19.9935 55.0733 20.2122 55.2345 20.3733C55.3957 20.5345 55.6143 20.625 55.8422 20.625H67.8734C68.1013 20.625 68.3199 20.5345 68.4811 20.3733C68.6423 20.2122 68.7328 19.9935 68.7328 19.7656V7.73438C68.7328 7.50645 68.6423 7.28783 68.4811 7.12667C68.3199 6.9655 68.1013 6.875 67.8734 6.875H55.8422ZM22.3265 8.59375H32.639V18.9062H22.3265V8.59375ZM39.514 8.59375H49.8265V18.9062H39.514V8.59375ZM56.7015 8.59375H67.014V18.9062H56.7015V8.59375ZM21.4672 24.0625C21.2393 24.0625 21.0207 24.153 20.8595 24.3142C20.6983 24.4753 20.6078 24.694 20.6078 24.9219V36.9531C20.6078 37.181 20.6983 37.3997 20.8595 37.5608C21.0207 37.722 21.2393 37.8125 21.4672 37.8125H33.4984C33.7263 37.8125 33.9449 37.722 34.1061 37.5608C34.2673 37.3997 34.3578 37.181 34.3578 36.9531V24.9219C34.3578 24.694 34.2673 24.4753 34.1061 24.3142C33.9449 24.153 33.7263 24.0625 33.4984 24.0625H21.4672ZM38.6547 24.0625C38.4268 24.0625 38.2082 24.153 38.047 24.3142C37.8858 24.4753 37.7953 24.694 37.7953 24.9219V36.9531C37.7953 37.181 37.8858 37.3997 38.047 37.5608C38.2082 37.722 38.4268 37.8125 38.6547 37.8125H50.6859C50.9138 37.8125 51.1324 37.722 51.2936 37.5608C51.4548 37.3997 51.5453 37.181 51.5453 36.9531V24.9219C51.5453 24.694 51.4548 24.4753 51.2936 24.3142C51.1324 24.153 50.9138 24.0625 50.6859 24.0625H38.6547ZM55.8422 24.0625C55.6143 24.0625 55.3957 24.153 55.2345 24.3142C55.0733 24.4753 54.9828 24.694 54.9828 24.9219V36.9531C54.9828 37.181 55.0733 37.3997 55.2345 37.5608C55.3957 37.722 55.6143 37.8125 55.8422 37.8125H67.8734C68.1013 37.8125 68.3199 37.722 68.4811 37.5608C68.6423 37.3997 68.7328 37.181 68.7328 36.9531V24.9219C68.7328 24.694 68.6423 24.4753 68.4811 24.3142C68.3199 24.153 68.1013 24.0625 67.8734 24.0625H55.8422ZM22.3265 25.7812H32.639V36.0938H22.3265V25.7812ZM39.514 25.7812H49.8265V36.0938H39.514V25.7812ZM56.7015 25.7812H67.014V36.0938H56.7015V25.7812ZM21.4672 41.25C21.2393 41.25 21.0207 41.3405 20.8595 41.5017C20.6983 41.6628 20.6078 41.8815 20.6078 42.1094V54.1406C20.6078 54.2535 20.63 54.3652 20.6732 54.4695C20.7164 54.5738 20.7797 54.6685 20.8595 54.7483C20.9393 54.8281 21.0341 54.8915 21.1383 54.9346C21.2426 54.9778 21.3543 55.0001 21.4672 55.0001H33.4984C33.7263 55.0001 33.9449 54.9095 34.1061 54.7483C34.2673 54.5872 34.3578 54.3685 34.3578 54.1406V42.1094C34.3578 41.8815 34.2673 41.6628 34.1061 41.5017C33.9449 41.3405 33.7263 41.25 33.4984 41.25H21.4672ZM38.6547 41.25C38.4268 41.25 38.2082 41.3405 38.047 41.5017C37.8858 41.6628 37.7953 41.8815 37.7953 42.1094V54.1406C37.7953 54.2535 37.8175 54.3652 37.8607 54.4695C37.9039 54.5738 37.9672 54.6685 38.047 54.7483C38.1268 54.8281 38.2216 54.8915 38.3258 54.9346C38.4301 54.9778 38.5418 55.0001 38.6547 55.0001H50.6859C50.9138 55.0001 51.1324 54.9095 51.2936 54.7483C51.4548 54.5872 51.5453 54.3685 51.5453 54.1406V42.1094C51.5453 41.8815 51.4548 41.6628 51.2936 41.5017C51.1324 41.3405 50.9138 41.25 50.6859 41.25H38.6547ZM55.8422 41.25C55.6143 41.25 55.3957 41.3405 55.2345 41.5017C55.0733 41.6628 54.9828 41.8815 54.9828 42.1094V54.1406C54.9828 54.2535 55.005 54.3652 55.0482 54.4695C55.0914 54.5738 55.1547 54.6685 55.2345 54.7483C55.3143 54.8281 55.4091 54.8915 55.5133 54.9346C55.6176 54.9778 55.7293 55.0001 55.8422 55.0001H67.8734C68.1013 55.0001 68.3199 54.9095 68.4811 54.7483C68.6423 54.5872 68.7328 54.3685 68.7328 54.1406V42.1094C68.7328 41.8815 68.6423 41.6628 68.4811 41.5017C68.3199 41.3405 68.1013 41.25 67.8734 41.25H55.8422ZM22.3265 42.9688H32.639V53.2812H22.3265V42.9688ZM39.514 42.9688H49.8265V53.2812H39.514V42.9688ZM56.7015 42.9688H67.014V53.2812H56.7015V42.9688ZM3.4203 60.1564H85.9203V65.3126H74.9066C74.8076 65.2951 74.7064 65.2951 74.6075 65.3126H14.7262C14.6787 65.3028 14.6304 65.297 14.5819 65.2954C14.5391 65.298 14.4966 65.3037 14.4547 65.3126H3.4203V60.1564ZM6.8578 67.0314H13.7328V94.5314H10.2953V88.5157C10.2953 88.2878 10.2048 88.0691 10.0436 87.9079C9.88244 87.7467 9.66384 87.6564 9.43592 87.6564H6.8578V67.0314ZM15.4515 67.0314H73.889V94.5314H68.7328V71.3282C68.7328 71.1003 68.6423 70.8816 68.4811 70.7204C68.3199 70.5592 68.1013 70.4689 67.8734 70.4689H21.4672C21.2393 70.4689 21.0207 70.5592 20.8595 70.7204C20.6983 70.8816 20.6078 71.1003 20.6078 71.3282V94.5314H15.4515V67.0314ZM75.6078 67.0314H82.4828V87.6564H79.9047C79.6768 87.6564 79.4582 87.7467 79.297 87.9079C79.1358 88.0691 79.0453 88.2878 79.0453 88.5157V94.5314H75.6078V67.0314ZM22.3265 72.1876H36.0765V94.5314H22.3265V72.1876ZM37.7953 72.1876H51.5453V94.5314H37.7953V72.1876ZM53.264 72.1876H67.014V94.5314H53.264V72.1876ZM3.4203 89.3751H8.57655V94.5314H3.4203V89.3751ZM80.764 89.3751H85.9203V94.5314H80.764V89.3751Z" fill="#0D3B48"/>
</svg>
